<?xml version="1.0" standalone="no"?>
<!DOCTYPE svg PUBLIC "-//W3C//DTD SVG 20010904//EN"
 "http://www.w3.org/TR/2001/REC-SVG-20010904/DTD/svg10.dtd">
<svg version="1.0" xmlns="http://www.w3.org/2000/svg"
 width="660.000000pt" height="660.000000pt" viewBox="0 0 660.000000 660.000000"
 preserveAspectRatio="xMidYMid meet">
<metadata>
Created by potrace 1.11, written by Peter Selinger 2001-2013
</metadata>
<g transform="translate(0.000000,660.000000) scale(0.100000,-0.100000)"
fill="#000000" stroke="none">
<path d="M3043 6592 c-6 -4 -16 -19 -20 -32 -7 -19 -10 -6449 -4 -6517 1 -6 8
-19 17 -27 23 -23 499 -23 529 0 20 15 20 27 21 3282 0 3239 0 3267 -19 3285
-18 15 -46 17 -266 17 -135 0 -251 -4 -258 -8z"/>
<path d="M4014 6176 c-19 -14 -19 -54 -19 -2705 0 -2426 2 -2692 16 -2706 13
-13 49 -16 238 -15 126 0 230 4 240 10 10 5 20 17 23 27 2 10 4 1222 3 2694 0
2489 -1 2677 -17 2692 -14 15 -44 17 -240 17 -178 0 -228 -3 -244 -14z"/>
<path d="M2168 6161 c-24 -11 -28 -20 -29 -55 0 -22 -1 -1235 -1 -2694 -1
-2596 -1 -2653 18 -2667 15 -11 64 -14 242 -15 204 0 224 2 241 19 18 18 18
93 18 2701 0 2445 -2 2683 -16 2701 -15 19 -30 20 -230 22 -164 2 -221 -1
-243 -12z"/>
<path d="M1277 4899 c-27 -3 -53 -12 -58 -20 -5 -8 -9 -590 -9 -1429 1 -1461
0 -1440 38 -1448 25 -5 273 -4 278 1 3 3 19 1 35 -3 16 -5 31 -5 34 0 3 5 18
5 33 0 34 -9 86 10 96 35 8 21 8 2802 0 2832 -3 12 -16 25 -27 29 -26 8 -355
11 -420 3z"/>
<path d="M4947 4708 l-22 -17 0 -1420 c0 -1296 1 -1422 16 -1436 14 -14 47
-17 230 -17 118 -1 224 2 236 6 12 4 25 17 29 29 12 34 12 2808 0 2835 -5 12
-19 25 -32 28 -12 3 -115 6 -228 7 -180 2 -209 0 -229 -15z"/>
<path d="M298 4158 c-17 -17 -18 -56 -18 -707 0 -614 2 -691 16 -705 19 -20
-2 -18 253 -20 145 -1 219 3 229 10 19 14 29 89 22 167 -3 31 -3 57 0 57 6 0
3 277 -4 303 -2 9 -1 17 2 17 4 0 6 30 5 67 -2 71 -3 187 -2 213 0 8 0 60 0
115 -2 233 -2 341 -1 355 2 77 -9 138 -27 141 -5 1 -109 2 -232 3 -205 2 -227
0 -243 -16z"/>
<path d="M5828 4158 c-17 -17 -18 -55 -18 -705 0 -379 4 -693 8 -699 17 -26
57 -30 257 -28 244 2 220 0 239 20 14 14 16 91 16 703 0 575 -2 690 -14 706
-13 18 -29 20 -242 20 -207 1 -229 0 -246 -17z"/>
</g>
</svg>
