<svg xmlns="http://www.w3.org/2000/svg" width="208.868" height="70.399" viewBox="0 0 208.868 70.399">
  <g id="Komponente_16_2" transform="translate(0 41.737)">
    <g id="Komponente_15_2" transform="translate(0 -41.737)">
      <text id="Smart" transform="translate(70.413 33)" fill="#0d0c0c" font-size="31" font-family="SegoeUI, Segoe UI"><tspan x="0" y="0">Smart</tspan></text>
      <text id="mAIt" transform="translate(104.51 60.913)" fill="#0d0c0c" font-size="30" font-family="SegoeUI, Segoe UI"><tspan x="0" y="0">Mait</tspan></text>
      <rect id="Rechteck_42" width="3.904" height="20.114" rx="1.4" transform="translate(6.972 28.914)" fill="#0d0c0c"/>
      <rect id="Rechteck_43" width="3.904" height="37.713" rx="1.4" transform="translate(13.943 20.115)" fill="#0d0c0c"/>
      <rect id="Rechteck_44" width="3.904" height="56.569" rx="1.4" transform="translate(20.915 11.315)" fill="#0d0c0c"/>
      <rect id="Rechteck_45" width="3.904" height="37.713" rx="1.4" transform="translate(27.886 19.983)" fill="#0d0c0c"/>
      <rect id="Rechteck_46" width="3.904" height="20.114" rx="1.4" transform="translate(34.858 30.172)" fill="#0d0c0c"/>
      <rect id="Rechteck_47" width="3.904" height="37.713" rx="1.4" transform="translate(55.772 20.115)" fill="#0d0c0c"/>
      <rect id="Rechteck_48" width="3.904" height="56.569" rx="1.4" transform="translate(62.744 11.315)" fill="#0d0c0c"/>
      <rect id="Rechteck_49" width="3.904" height="10.057" rx="1.4" transform="translate(0 33.943)" fill="#0d0c0c"/>
      <path id="Pfad_5" d="M1.952,0A1.917,1.917,0,0,1,3.9,1.886V8.171a1.917,1.917,0,0,1-1.952,1.886A1.917,1.917,0,0,1,0,8.171V1.886A1.917,1.917,0,0,1,1.952,0Z" transform="translate(41.829 35.2)" fill="#0d0c0c"/>
      <rect id="Rechteck_51" width="3.904" height="20.114" rx="1.4" transform="translate(48.801 30.172)" fill="#0d0c0c"/>
      <rect id="Rechteck_54" width="3.904" height="15.085" rx="1.4" transform="translate(170.106 32.686)" fill="#0d0c0c"/>
      <rect id="Rechteck_55" width="3.904" height="25.142" rx="1.4" transform="translate(177.078 27.657)" fill="#0d0c0c"/>
      <rect id="Rechteck_56" width="3.904" height="41.484" rx="1.4" transform="translate(184.049 18.858)" fill="#0d0c0c"/>
      <rect id="Rechteck_57" width="3.904" height="33.942" rx="1.4" transform="translate(191.021 23.886)" fill="#0d0c0c"/>
      <rect id="Rechteck_58" width="3.904" height="15.085" rx="1.4" transform="translate(197.992 31.429)" fill="#0d0c0c"/>
      <rect id="Rechteck_59" width="3.904" height="8.8" rx="1.4" transform="translate(204.964 35.2)" fill="#0d0c0c"/>
      <rect id="Rechteck_60" width="3.904" height="32.685" rx="1.4" transform="translate(69.716 37.714)" fill="#0d0c0c"/>
      <rect id="Rechteck_61" width="3.904" height="27.642" rx="1.4" transform="translate(76.687 37.728)" fill="#0d0c0c"/>
      <rect id="Rechteck_62" width="3.904" height="23.87" rx="1.4" transform="translate(83.659 37.728)" fill="#0d0c0c"/>
    </g>
  </g>
</svg>